<svg width="1028" height="572" viewBox="0 0 1028 572" fill="none" xmlns="http://www.w3.org/2000/svg">
<g clip-path="url(#clip0_5855_7206)">
<g filter="url(#filter0_f_5855_7206)">
<path d="M506 440.798C506 544.298 50 440.798 50 787C-54.9341 787 -140 703.097 -140 599.597C-140 496.097 -54.9341 412.193 50 412.193C154.934 412.193 506 337.298 506 440.798Z" fill="#FF83C8" fill-opacity="0.77"/>
</g>
<g opacity="0.08">
<path d="M931.771 46.1914H929.482V96.5521H931.771V46.1914Z" fill="white"/>
<path d="M951.73 57.9021L908.115 83.0781L909.259 85.0607L952.874 59.8847L951.73 57.9021Z" fill="white"/>
<path d="M908.96 57.541L907.815 59.5234L951.429 84.7038L952.574 82.7214L908.96 57.541Z" fill="white"/>
<path d="M930.626 47.3364C930.4 47.3364 930.179 47.2695 929.991 47.1441L926.557 44.855C926.4 44.7504 926.272 44.6088 926.183 44.4427C926.094 44.2766 926.048 44.0911 926.048 43.9027V40.469C926.048 40.2806 926.094 40.0951 926.183 39.929C926.272 39.7629 926.4 39.6213 926.557 39.5167L929.991 37.2276C930.179 37.1021 930.4 37.0352 930.626 37.0352C930.852 37.0352 931.073 37.1021 931.261 37.2276L934.695 39.5167C934.852 39.6213 934.98 39.7629 935.069 39.929C935.158 40.0951 935.204 40.2806 935.204 40.469V43.9027C935.204 44.0911 935.158 44.2766 935.069 44.4427C934.98 44.6088 934.852 44.7504 934.695 44.855L931.261 47.1441C931.073 47.2695 930.852 47.3364 930.626 47.3364ZM928.337 43.2904L930.626 44.8183L932.915 43.2926V41.0814L930.626 39.5534L928.337 41.0814V43.2904Z" fill="white"/>
<path d="M930.626 105.707C930.4 105.708 930.179 105.641 929.991 105.515L926.557 103.226C926.4 103.122 926.272 102.98 926.183 102.814C926.094 102.648 926.048 102.462 926.048 102.274V98.8401C926.048 98.6517 926.094 98.4662 926.183 98.3001C926.272 98.134 926.4 97.9924 926.557 97.8878L929.991 95.5987C930.179 95.4732 930.4 95.4062 930.626 95.4062C930.852 95.4062 931.073 95.4732 931.261 95.5987L934.695 97.8878C934.852 97.9924 934.98 98.134 935.069 98.3001C935.158 98.4662 935.204 98.6517 935.204 98.8401V102.274C935.204 102.462 935.158 102.648 935.069 102.814C934.98 102.98 934.852 103.122 934.695 103.226L931.261 105.515C931.073 105.641 930.852 105.708 930.626 105.707V105.707ZM928.337 101.661L930.626 103.189L932.915 101.664V99.4547L930.626 97.9245L928.337 99.4502V101.661Z" fill="white"/>
<path d="M930.627 54.2046C930.359 54.205 930.099 54.1115 929.893 53.9402L923.025 48.2174L924.493 46.457L930.627 51.5721L936.76 46.4593L938.228 48.2197L931.36 53.9425C931.154 54.1129 930.894 54.2057 930.627 54.2046Z" fill="white"/>
<path d="M936.76 96.2867L930.627 91.1716L924.493 96.2844L923.025 94.524L929.893 88.8012C930.099 88.6293 930.358 88.5352 930.627 88.5352C930.895 88.5352 931.154 88.6293 931.36 88.8012L938.228 94.524L936.76 96.2867Z" fill="white"/>
<path d="M905.444 91.0571C905.269 91.0583 905.095 91.0192 904.937 90.9426L901.237 89.1113C901.034 89.0112 900.866 88.8533 900.753 88.6576C900.64 88.4618 900.587 88.237 900.602 88.0114L900.868 83.891C900.881 83.7031 900.94 83.5212 901.04 83.3614C901.14 83.2017 901.277 83.0691 901.441 82.9753L904.417 81.2585C904.58 81.1644 904.764 81.112 904.952 81.106C905.14 81.1001 905.327 81.1406 905.496 81.2242L909.195 83.0555C909.398 83.1556 909.566 83.3135 909.679 83.5092C909.792 83.705 909.845 83.9298 909.83 84.1554L909.565 88.2758C909.552 88.4637 909.493 88.6456 909.393 88.8054C909.294 88.9651 909.156 89.0977 908.993 89.1915L906.017 90.9083C905.842 91.0072 905.645 91.0585 905.444 91.0571V91.0571ZM902.94 87.3945L905.407 88.6135L907.318 87.5101L907.495 84.7632L905.03 83.5419L903.117 84.6476L902.94 87.3945Z" fill="white"/>
<path d="M956.002 61.8735C955.826 61.8747 955.653 61.8356 955.495 61.759L951.794 59.9277C951.592 59.8276 951.423 59.6697 951.31 59.474C951.197 59.2782 951.145 59.0534 951.159 58.8278L951.426 54.7074C951.438 54.5195 951.497 54.3376 951.597 54.1779C951.697 54.0181 951.835 53.8855 951.998 53.7918L954.974 52.0749C955.137 51.9808 955.321 51.9284 955.509 51.9225C955.698 51.9165 955.884 51.957 956.053 52.0406L959.752 53.8719C959.955 53.972 960.124 54.1299 960.237 54.3256C960.35 54.5214 960.402 54.7462 960.388 54.9718L960.122 59.0922C960.109 59.2801 960.051 59.462 959.951 59.6218C959.851 59.7815 959.713 59.9141 959.55 60.0079L956.574 61.7247C956.4 61.8236 956.202 61.8749 956.002 61.8735ZM953.494 58.2109L955.961 59.4299L957.867 58.3254L958.045 55.5784L955.579 54.3606L953.667 55.4651L953.494 58.2109Z" fill="white"/>
<path d="M914.24 89.6441L911.984 89.2526L913.343 81.3849L905.848 78.6288L906.637 76.4805L915.028 79.5708C915.279 79.6631 915.491 79.8408 915.625 80.073C915.759 80.3052 915.807 80.5771 915.761 80.8412L914.24 89.6441Z" fill="white"/>
<path d="M954.352 66.4853L945.96 63.3949C945.708 63.3025 945.497 63.1248 945.364 62.8929C945.23 62.661 945.181 62.3895 945.227 62.1256L946.75 53.3125L949.006 53.7039L947.644 61.5717L955.14 64.3278L954.352 66.4853Z" fill="white"/>
<path d="M955.244 90.6945C955.043 90.6945 954.846 90.6416 954.672 90.5411L951.696 88.8243C951.533 88.7305 951.395 88.5979 951.295 88.4382C951.196 88.2784 951.137 88.0966 951.124 87.9086L950.86 83.7882C950.845 83.5627 950.897 83.338 951.01 83.1423C951.123 82.9465 951.291 82.7886 951.494 82.6883L955.193 80.857C955.362 80.7734 955.549 80.7329 955.737 80.7389C955.925 80.7448 956.109 80.7972 956.272 80.8913L959.248 82.6082C959.411 82.7019 959.549 82.8345 959.649 82.9943C959.749 83.154 959.808 83.3359 959.82 83.5238L960.085 87.6442C960.099 87.8697 960.047 88.0944 959.934 88.2902C959.821 88.4859 959.653 88.6439 959.451 88.7442L955.751 90.5755C955.594 90.6541 955.42 90.6948 955.244 90.6945V90.6945ZM953.373 87.1463L955.286 88.2508L957.753 87.033L957.577 84.2861L955.664 83.1816L953.199 84.4005L953.373 87.1463Z" fill="white"/>
<path d="M904.691 61.507C904.491 61.507 904.293 61.4541 904.119 61.3536L901.143 59.6368C900.98 59.543 900.842 59.4104 900.742 59.2507C900.643 59.091 900.584 58.9091 900.571 58.7211L900.307 54.6007C900.292 54.3752 900.344 54.1505 900.457 53.9548C900.57 53.759 900.738 53.6011 900.941 53.5008L904.64 51.6695C904.809 51.5859 904.996 51.5454 905.184 51.5514C905.372 51.5573 905.556 51.6097 905.719 51.7038L908.695 53.4207C908.858 53.5144 908.996 53.647 909.096 53.8068C909.196 53.9665 909.255 54.1484 909.267 54.3363L909.532 58.4567C909.546 58.6822 909.494 58.9069 909.381 59.1027C909.268 59.2984 909.1 59.4564 908.898 59.5567L905.198 61.388C905.041 61.4666 904.867 61.5073 904.691 61.507V61.507ZM902.82 57.9588L904.733 59.0633L907.198 57.8444L907.022 55.0974L905.109 53.9929L902.644 55.2142L902.82 57.9588Z" fill="white"/>
<path d="M946.45 89.2849L944.927 80.4718C944.882 80.2081 944.93 79.9369 945.064 79.7052C945.198 79.4735 945.409 79.296 945.66 79.2036L954.05 76.1133L954.84 78.2616L947.345 81.0189L948.709 88.8969L946.45 89.2849Z" fill="white"/>
<path d="M906.344 66.1284L905.553 63.9801L913.049 61.224L911.688 53.354L913.944 52.9648L915.466 61.778C915.512 62.0418 915.463 62.3133 915.33 62.5452C915.196 62.7772 914.985 62.9548 914.734 63.0473L906.344 66.1284Z" fill="white"/>
<path d="M919.18 90.8296C919.019 90.8297 918.86 90.7957 918.713 90.7299C918.566 90.6641 918.434 90.568 918.327 90.4479C918.219 90.3277 918.139 90.1862 918.09 90.0327C918.041 89.8792 918.025 89.717 918.043 89.5569L919.424 77.3352L908.412 72.4136C908.212 72.324 908.041 72.1786 907.921 71.9948C907.801 71.811 907.736 71.5965 907.735 71.3769C907.733 71.1573 907.795 70.9419 907.912 70.7563C908.03 70.5708 908.198 70.423 908.398 70.3305L919.72 65.077L919.18 53.1106C919.171 52.8965 919.221 52.684 919.327 52.4973C919.432 52.3106 919.587 52.1572 919.775 52.0545C919.963 51.9518 920.177 51.904 920.39 51.9165C920.604 51.929 920.811 52.0013 920.985 52.1251L930.626 58.9524L940.266 52.1251C940.445 51.9964 940.657 51.9222 940.878 51.9115C941.098 51.9008 941.317 51.9541 941.508 52.0648C941.699 52.1756 941.854 52.3392 941.954 52.5359C942.054 52.7326 942.095 52.9541 942.072 53.1735L940.959 64.9179L952.848 70.3305C953.049 70.4225 953.22 70.5709 953.339 70.7579C953.457 70.9448 953.519 71.1622 953.517 71.3837C953.515 71.6052 953.448 71.8213 953.326 72.0057C953.203 72.1902 953.029 72.335 952.826 72.4228L941.13 77.4646L942.068 89.5969C942.085 89.8137 942.04 90.0307 941.937 90.2226C941.835 90.4146 941.681 90.5734 941.492 90.6807C941.302 90.7879 941.087 90.839 940.87 90.8281C940.652 90.8172 940.443 90.7447 940.266 90.619L930.593 83.7677L919.795 90.6499C919.611 90.7671 919.398 90.8294 919.18 90.8296V90.8296ZM911.641 71.3515L921.123 75.5864C921.345 75.6854 921.529 75.8525 921.65 76.0634C921.77 76.2743 921.821 76.5181 921.793 76.7595L920.587 87.4303L930.011 81.4236C930.203 81.3014 930.427 81.2391 930.654 81.2446C930.882 81.2501 931.102 81.3232 931.288 81.4545L939.598 87.341L938.784 76.8259C938.766 76.5882 938.822 76.3507 938.945 76.1465C939.069 75.9424 939.252 75.7817 939.471 75.6871L949.543 71.3377L939.258 66.6519C939.043 66.5533 938.863 66.3903 938.744 66.1853C938.625 65.9803 938.573 65.7434 938.594 65.5073L939.548 55.4352L931.283 61.2896C931.09 61.4266 930.858 61.5002 930.621 61.5002C930.384 61.5002 930.153 61.4266 929.96 61.2896L921.574 55.3482L922.042 65.7408C922.052 65.9676 921.995 66.1922 921.877 66.3863C921.759 66.5803 921.586 66.7349 921.38 66.8305L911.641 71.3515Z" fill="white"/>
</g>
<g opacity="0.08">
<path d="M45.8108 371.68H44.5785V398.79H45.8108V371.68Z" fill="white"/>
<path d="M56.5553 377.982L33.076 391.535L33.6921 392.602L57.1714 379.049L56.5553 377.982Z" fill="white"/>
<path d="M33.5309 377.788L32.9148 378.855L56.3934 392.411L57.0096 391.344L33.5309 377.788Z" fill="white"/>
<path d="M45.1945 372.295C45.0728 372.296 44.9538 372.259 44.8526 372.192L43.0041 370.96C42.9197 370.903 42.8506 370.827 42.8028 370.738C42.7549 370.648 42.7299 370.548 42.7299 370.447V368.599C42.7299 368.497 42.7549 368.397 42.8028 368.308C42.8506 368.218 42.9197 368.142 43.0041 368.086L44.8526 366.854C44.9538 366.786 45.0728 366.75 45.1945 366.75C45.3163 366.75 45.4352 366.786 45.5365 366.854L47.385 368.086C47.4693 368.142 47.5385 368.218 47.5863 368.308C47.6341 368.397 47.6592 368.497 47.6591 368.599V370.447C47.6592 370.548 47.6341 370.648 47.5863 370.738C47.5385 370.827 47.4693 370.903 47.385 370.96L45.5365 372.192C45.4352 372.259 45.3162 372.296 45.1945 372.295ZM43.9622 370.117L45.1945 370.94L46.4268 370.119V368.928L45.1945 368.106L43.9622 368.928V370.117Z" fill="white"/>
<path d="M45.1945 403.717C45.0728 403.717 44.9538 403.681 44.8525 403.614L43.004 402.382C42.9197 402.325 42.8505 402.249 42.8027 402.16C42.7549 402.07 42.7298 401.97 42.7299 401.869V400.02C42.7298 399.919 42.7549 399.819 42.8027 399.73C42.8505 399.64 42.9197 399.564 43.004 399.508L44.8525 398.275C44.9538 398.208 45.0728 398.172 45.1945 398.172C45.3162 398.172 45.4352 398.208 45.5364 398.275L47.3849 399.508C47.4693 399.564 47.5384 399.64 47.5863 399.73C47.6341 399.819 47.6591 399.919 47.6591 400.02V401.869C47.6591 401.97 47.6341 402.07 47.5863 402.16C47.5384 402.249 47.4693 402.325 47.3849 402.382L45.5364 403.614C45.4352 403.681 45.3162 403.717 45.1945 403.717V403.717ZM43.9622 401.539L45.1945 402.362L46.4268 401.54V400.351L45.1945 399.528L43.9622 400.349V401.539Z" fill="white"/>
<path d="M45.1948 375.991C45.0505 375.991 44.9108 375.941 44.7998 375.849L41.1029 372.768L41.8928 371.82L45.1948 374.574L48.4967 371.822L49.2867 372.769L45.5897 375.85C45.4786 375.942 45.3389 375.992 45.1948 375.991Z" fill="white"/>
<path d="M48.4967 398.646L45.1948 395.892L41.8928 398.644L41.1029 397.697L44.7998 394.616C44.9106 394.523 45.0504 394.473 45.1948 394.473C45.3391 394.473 45.4789 394.523 45.5897 394.616L49.2867 397.697L48.4967 398.646Z" fill="white"/>
<path d="M31.6384 395.834C31.5439 395.835 31.4505 395.813 31.3654 395.772L29.3734 394.786C29.2643 394.732 29.1736 394.647 29.1127 394.542C29.0519 394.437 29.0236 394.316 29.0314 394.194L29.175 391.976C29.1818 391.875 29.2135 391.777 29.2673 391.691C29.321 391.605 29.3951 391.534 29.4831 391.483L31.0851 390.559C31.1729 390.508 31.2719 390.48 31.3733 390.477C31.4746 390.474 31.5752 390.495 31.6661 390.54L33.6575 391.526C33.7666 391.58 33.8573 391.665 33.9182 391.771C33.979 391.876 34.0073 391.997 33.9995 392.118L33.8565 394.337C33.8497 394.438 33.818 394.536 33.7643 394.622C33.7105 394.708 33.6364 394.779 33.5485 394.83L31.9465 395.754C31.8526 395.807 31.7463 395.835 31.6384 395.834V395.834ZM30.2902 393.862L31.618 394.518L32.647 393.924L32.7425 392.446L31.4153 391.788L30.3857 392.383L30.2902 393.862Z" fill="white"/>
<path d="M58.8551 380.119C58.7605 380.12 58.6672 380.099 58.5821 380.057L56.5901 379.072C56.481 379.018 56.3903 378.933 56.3294 378.827C56.2686 378.722 56.2403 378.601 56.2481 378.479L56.3917 376.261C56.3985 376.16 56.4302 376.062 56.4839 375.976C56.5377 375.89 56.6118 375.819 56.6997 375.768L58.3017 374.844C58.3896 374.793 58.4886 374.765 58.5899 374.762C58.6913 374.759 58.7919 374.781 58.8828 374.826L60.8742 375.811C60.9833 375.865 61.074 375.95 61.1348 376.056C61.1957 376.161 61.224 376.282 61.2162 376.404L61.0732 378.622C61.0664 378.723 61.0347 378.821 60.9809 378.907C60.9272 378.993 60.8531 379.064 60.7651 379.115L59.1631 380.039C59.0692 380.092 58.963 380.12 58.8551 380.119ZM57.5051 378.147L58.8329 378.804L59.8594 378.209L59.9549 376.73L58.6277 376.075L57.5981 376.669L57.5051 378.147Z" fill="white"/>
<path d="M36.3735 395.071L35.159 394.86L35.8904 390.625L31.8558 389.141L32.2804 387.984L36.7974 389.648C36.9329 389.698 37.0467 389.793 37.1189 389.918C37.191 390.043 37.217 390.19 37.1923 390.332L36.3735 395.071Z" fill="white"/>
<path d="M57.9668 382.603L53.4491 380.939C53.3139 380.89 53.2003 380.794 53.1283 380.669C53.0562 380.544 53.0302 380.398 53.0548 380.256L53.8749 375.512L55.0893 375.722L54.3561 379.958L58.3913 381.442L57.9668 382.603Z" fill="white"/>
<path d="M58.4474 395.637C58.3392 395.637 58.2329 395.609 58.1393 395.555L56.5373 394.63C56.4493 394.58 56.3752 394.508 56.3215 394.422C56.2677 394.336 56.236 394.239 56.2292 394.137L56.0869 391.919C56.079 391.798 56.1072 391.677 56.1679 391.571C56.2287 391.466 56.3192 391.381 56.4282 391.327L58.4196 390.341C58.5105 390.296 58.6111 390.274 58.7125 390.278C58.8138 390.281 58.9128 390.309 59.0007 390.36L60.6027 391.284C60.6906 391.334 60.7647 391.406 60.8185 391.492C60.8722 391.578 60.9039 391.676 60.9107 391.777L61.0531 393.995C61.061 394.116 61.0328 394.237 60.972 394.343C60.9113 394.448 60.8207 394.533 60.7117 394.587L58.7203 395.573C58.6356 395.615 58.5421 395.637 58.4474 395.637V395.637ZM57.4399 393.727L58.4695 394.322L59.798 393.666L59.7031 392.187L58.6735 391.593L57.3463 392.249L57.4399 393.727Z" fill="white"/>
<path d="M31.2331 379.926C31.125 379.926 31.0187 379.898 30.925 379.844L29.323 378.919C29.2351 378.869 29.161 378.797 29.1072 378.712C29.0535 378.626 29.0218 378.528 29.015 378.426L28.8726 376.208C28.8647 376.087 28.8929 375.966 28.9537 375.861C29.0144 375.755 29.105 375.67 29.214 375.616L31.2054 374.63C31.2963 374.585 31.3969 374.563 31.4982 374.567C31.5996 374.57 31.6986 374.598 31.7864 374.649L33.3884 375.573C33.4764 375.623 33.5505 375.695 33.6042 375.781C33.658 375.867 33.6897 375.965 33.6965 376.066L33.8388 378.284C33.8467 378.405 33.8185 378.526 33.7578 378.632C33.697 378.737 33.6065 378.822 33.4975 378.876L31.5061 379.862C31.4213 379.904 31.3279 379.926 31.2331 379.926V379.926ZM30.2257 378.016L31.2553 378.611L32.5825 377.954L32.4876 376.476L31.458 375.881L30.1308 376.539L30.2257 378.016Z" fill="white"/>
<path d="M53.7129 394.876L52.8934 390.131C52.869 389.99 52.8951 389.844 52.9671 389.719C53.0392 389.594 53.1526 389.499 53.2878 389.449L57.8042 387.785L58.23 388.942L54.1948 390.426L54.9292 394.667L53.7129 394.876Z" fill="white"/>
<path d="M32.1227 382.411L31.6969 381.254L35.7321 379.77L34.9995 375.534L36.2139 375.324L37.0334 380.069C37.058 380.211 37.032 380.357 36.9599 380.482C36.8879 380.606 36.7743 380.702 36.6391 380.752L32.1227 382.411Z" fill="white"/>
<path d="M39.033 395.709C38.9462 395.709 38.8604 395.691 38.7812 395.656C38.702 395.62 38.6312 395.569 38.5734 395.504C38.5156 395.439 38.4721 395.363 38.4457 395.28C38.4194 395.198 38.4108 395.11 38.4205 395.024L39.1642 388.445L33.2362 385.795C33.1283 385.747 33.0365 385.669 32.9718 385.57C32.9072 385.471 32.8723 385.356 32.8715 385.237C32.8706 385.119 32.9038 385.003 32.9671 384.903C33.0303 384.803 33.121 384.724 33.2282 384.674L39.3232 381.846L39.033 375.404C39.0278 375.289 39.055 375.174 39.1117 375.074C39.1683 374.973 39.252 374.891 39.3532 374.836C39.4545 374.78 39.5692 374.755 39.6844 374.761C39.7995 374.768 39.9105 374.807 40.0046 374.874L45.1945 378.549L50.3838 374.874C50.4802 374.804 50.5947 374.764 50.7134 374.759C50.832 374.753 50.9498 374.781 51.0525 374.841C51.1553 374.901 51.2386 374.989 51.2924 375.095C51.3463 375.201 51.3684 375.32 51.356 375.438L50.7571 381.76L57.1571 384.674C57.2656 384.724 57.3574 384.803 57.4214 384.904C57.4854 385.005 57.5187 385.122 57.5175 385.241C57.5163 385.36 57.4804 385.477 57.4144 385.576C57.3484 385.675 57.2549 385.753 57.1454 385.8L50.8489 388.515L51.3542 395.046C51.3632 395.162 51.3388 395.279 51.2838 395.383C51.2288 395.486 51.1456 395.571 51.0438 395.629C50.942 395.687 50.8258 395.714 50.7089 395.709C50.5921 395.703 50.4793 395.664 50.3838 395.596L45.1766 391.908L39.3638 395.613C39.265 395.676 39.1502 395.709 39.033 395.709V395.709ZM34.9744 385.224L40.0786 387.503C40.198 387.557 40.2974 387.647 40.3623 387.76C40.4272 387.874 40.4543 388.005 40.4396 388.135L39.7902 393.879L44.8636 390.646C44.9668 390.58 45.0873 390.547 45.2097 390.549C45.332 390.552 45.4507 390.592 45.5506 390.662L50.0245 393.831L49.5864 388.171C49.5765 388.043 49.6068 387.915 49.6731 387.805C49.7394 387.695 49.8383 387.609 49.9561 387.558L55.3783 385.216L49.8415 382.694C49.7255 382.641 49.6288 382.553 49.5648 382.443C49.5008 382.332 49.4726 382.205 49.4842 382.078L49.9974 376.655L45.5482 379.807C45.4441 379.881 45.3196 379.92 45.192 379.92C45.0645 379.92 44.94 379.881 44.8359 379.807L40.3213 376.609L40.5734 382.203C40.5788 382.325 40.5479 382.446 40.4845 382.551C40.4211 382.655 40.3281 382.738 40.2172 382.79L34.9744 385.224Z" fill="white"/>
</g>
<g opacity="0.08">
<path d="M929.867 254.41H928.635V281.521H929.867V254.41Z" fill="white"/>
<path d="M940.612 260.713L917.133 274.266L917.749 275.333L941.228 261.78L940.612 260.713Z" fill="white"/>
<path d="M917.588 260.519L916.971 261.586L940.45 275.141L941.066 274.074L917.588 260.519Z" fill="white"/>
<path d="M929.251 255.026C929.129 255.026 929.01 254.99 928.909 254.922L927.061 253.69C926.976 253.634 926.907 253.558 926.859 253.468C926.811 253.379 926.786 253.279 926.786 253.177V251.329C926.786 251.228 926.811 251.128 926.859 251.038C926.907 250.949 926.976 250.873 927.061 250.816L928.909 249.584C929.01 249.517 929.129 249.48 929.251 249.48C929.373 249.48 929.492 249.517 929.593 249.584L931.442 250.816C931.526 250.873 931.595 250.949 931.643 251.038C931.691 251.128 931.716 251.228 931.716 251.329V253.177C931.716 253.279 931.691 253.379 931.643 253.468C931.595 253.558 931.526 253.634 931.442 253.69L929.593 254.922C929.492 254.99 929.373 255.026 929.251 255.026ZM928.019 252.848L929.251 253.67L930.483 252.849V251.659L929.251 250.836L928.019 251.659V252.848Z" fill="white"/>
<path d="M929.251 286.448C929.129 286.448 929.01 286.412 928.909 286.344L927.061 285.112C926.976 285.056 926.907 284.979 926.859 284.89C926.811 284.801 926.786 284.701 926.786 284.599V282.751C926.786 282.649 926.811 282.55 926.859 282.46C926.907 282.371 926.976 282.295 927.061 282.238L928.909 281.006C929.01 280.938 929.129 280.902 929.251 280.902C929.373 280.902 929.492 280.938 929.593 281.006L931.442 282.238C931.526 282.295 931.595 282.371 931.643 282.46C931.691 282.55 931.716 282.649 931.716 282.751V284.599C931.716 284.701 931.691 284.801 931.643 284.89C931.595 284.979 931.526 285.056 931.442 285.112L929.593 286.344C929.492 286.412 929.373 286.448 929.251 286.448V286.448ZM928.019 284.27L929.251 285.092L930.483 284.271V283.082L929.251 282.258L928.019 283.079V284.27Z" fill="white"/>
<path d="M929.251 258.722C929.107 258.722 928.967 258.671 928.856 258.579L925.16 255.498L925.949 254.551L929.251 257.304L932.553 254.552L933.343 255.5L929.646 258.58C929.535 258.672 929.395 258.722 929.251 258.722Z" fill="white"/>
<path d="M932.553 281.376L929.251 278.622L925.949 281.375L925.16 280.427L928.856 277.346C928.967 277.254 929.107 277.203 929.251 277.203C929.396 277.203 929.536 277.254 929.646 277.346L933.343 280.427L932.553 281.376Z" fill="white"/>
<path d="M915.695 278.564C915.6 278.565 915.507 278.544 915.422 278.503L913.43 277.517C913.321 277.463 913.23 277.378 913.169 277.273C913.108 277.167 913.08 277.046 913.088 276.925L913.232 274.707C913.238 274.605 913.27 274.507 913.324 274.421C913.378 274.336 913.452 274.264 913.54 274.214L915.142 273.289C915.23 273.239 915.329 273.211 915.43 273.207C915.531 273.204 915.632 273.226 915.723 273.271L917.714 274.257C917.823 274.311 917.914 274.396 917.975 274.501C918.036 274.606 918.064 274.727 918.056 274.849L917.913 277.067C917.906 277.168 917.875 277.266 917.821 277.352C917.767 277.438 917.693 277.51 917.605 277.56L916.003 278.484C915.909 278.537 915.803 278.565 915.695 278.564V278.564ZM914.347 276.593L915.675 277.249L916.704 276.655L916.799 275.176L915.472 274.519L914.442 275.114L914.347 276.593Z" fill="white"/>
<path d="M942.912 262.849C942.817 262.85 942.724 262.829 942.639 262.788L940.647 261.802C940.538 261.748 940.447 261.663 940.386 261.558C940.325 261.452 940.297 261.331 940.305 261.21L940.448 258.992C940.455 258.891 940.487 258.793 940.54 258.707C940.594 258.621 940.668 258.549 940.756 258.499L942.358 257.575C942.446 257.524 942.545 257.496 942.646 257.492C942.748 257.489 942.848 257.511 942.939 257.556L944.931 258.542C945.04 258.596 945.131 258.681 945.191 258.786C945.252 258.892 945.281 259.013 945.273 259.134L945.13 261.352C945.123 261.453 945.091 261.551 945.037 261.637C944.984 261.723 944.91 261.795 944.822 261.845L943.22 262.769C943.126 262.823 943.02 262.85 942.912 262.849ZM941.562 260.878L942.889 261.534L943.916 260.939L944.011 259.461L942.684 258.805L941.655 259.4L941.562 260.878Z" fill="white"/>
<path d="M920.43 277.801L919.216 277.591L919.947 273.355L915.912 271.871L916.337 270.715L920.854 272.378C920.99 272.428 921.103 272.524 921.175 272.649C921.248 272.774 921.274 272.92 921.249 273.062L920.43 277.801Z" fill="white"/>
<path d="M942.023 265.333L937.506 263.67C937.37 263.62 937.257 263.524 937.185 263.4C937.113 263.275 937.087 263.129 937.111 262.987L937.931 258.242L939.146 258.453L938.413 262.688L942.448 264.172L942.023 265.333Z" fill="white"/>
<path d="M942.504 278.368C942.396 278.368 942.289 278.339 942.196 278.285L940.594 277.361C940.506 277.31 940.432 277.239 940.378 277.153C940.324 277.067 940.293 276.969 940.286 276.868L940.143 274.65C940.136 274.528 940.164 274.407 940.224 274.302C940.285 274.197 940.376 274.112 940.485 274.058L942.476 273.072C942.567 273.027 942.668 273.005 942.769 273.008C942.87 273.011 942.969 273.04 943.057 273.09L944.659 274.014C944.747 274.065 944.821 274.136 944.875 274.222C944.929 274.308 944.96 274.406 944.967 274.507L945.11 276.726C945.118 276.847 945.089 276.968 945.029 277.073C944.968 277.179 944.877 277.264 944.768 277.318L942.777 278.303C942.692 278.346 942.599 278.368 942.504 278.368V278.368ZM941.496 276.457L942.526 277.052L943.855 276.396L943.76 274.918L942.73 274.323L941.403 274.979L941.496 276.457Z" fill="white"/>
<path d="M915.29 262.657C915.181 262.657 915.075 262.628 914.982 262.574L913.38 261.65C913.292 261.599 913.217 261.528 913.164 261.442C913.11 261.356 913.078 261.258 913.071 261.157L912.929 258.939C912.921 258.817 912.949 258.696 913.01 258.591C913.071 258.486 913.162 258.401 913.271 258.347L915.262 257.361C915.353 257.316 915.453 257.294 915.555 257.297C915.656 257.3 915.755 257.329 915.843 257.379L917.445 258.303C917.533 258.354 917.607 258.425 917.661 258.511C917.715 258.597 917.746 258.695 917.753 258.796L917.895 261.015C917.903 261.136 917.875 261.257 917.814 261.362C917.754 261.468 917.663 261.553 917.554 261.607L915.563 262.593C915.478 262.635 915.384 262.657 915.29 262.657V262.657ZM914.282 260.747L915.312 261.341L916.639 260.685L916.544 259.206L915.515 258.612L914.187 259.269L914.282 260.747Z" fill="white"/>
<path d="M937.769 277.606L936.95 272.862C936.926 272.72 936.952 272.574 937.024 272.449C937.096 272.325 937.209 272.229 937.344 272.179L941.861 270.516L942.286 271.672L938.251 273.156L938.986 277.397L937.769 277.606Z" fill="white"/>
<path d="M916.179 265.141L915.753 263.985L919.789 262.501L919.056 258.264L920.27 258.055L921.09 262.799C921.115 262.941 921.089 263.087 921.016 263.212C920.944 263.337 920.831 263.433 920.696 263.482L916.179 265.141Z" fill="white"/>
<path d="M923.09 278.44C923.003 278.44 922.917 278.422 922.838 278.386C922.759 278.351 922.688 278.299 922.63 278.234C922.572 278.17 922.529 278.094 922.502 278.011C922.476 277.928 922.467 277.841 922.477 277.755L923.221 271.175L917.293 268.526C917.185 268.478 917.093 268.399 917.028 268.3C916.964 268.202 916.929 268.086 916.928 267.968C916.927 267.85 916.96 267.734 917.024 267.634C917.087 267.534 917.178 267.454 917.285 267.405L923.38 264.576L923.09 258.135C923.084 258.019 923.112 257.905 923.168 257.804C923.225 257.704 923.309 257.621 923.41 257.566C923.511 257.511 923.626 257.485 923.741 257.492C923.856 257.498 923.967 257.537 924.061 257.604L929.251 261.279L934.44 257.604C934.537 257.535 934.651 257.495 934.77 257.489C934.889 257.483 935.006 257.512 935.109 257.572C935.212 257.631 935.295 257.719 935.349 257.825C935.403 257.931 935.425 258.05 935.413 258.168L934.814 264.491L941.214 267.405C941.322 267.454 941.414 267.534 941.478 267.635C941.542 267.735 941.575 267.852 941.574 267.972C941.573 268.091 941.537 268.207 941.471 268.306C941.405 268.406 941.311 268.484 941.202 268.531L934.905 271.245L935.411 277.776C935.42 277.893 935.395 278.01 935.34 278.113C935.285 278.216 935.202 278.302 935.1 278.36C934.999 278.417 934.882 278.445 934.765 278.439C934.649 278.433 934.536 278.394 934.44 278.326L929.233 274.638L923.42 278.343C923.322 278.406 923.207 278.44 923.09 278.44V278.44ZM919.031 267.954L924.135 270.234C924.255 270.287 924.354 270.377 924.419 270.491C924.484 270.604 924.511 270.736 924.496 270.865L923.847 276.61L928.92 273.376C929.023 273.311 929.144 273.277 929.266 273.28C929.389 273.283 929.507 273.322 929.607 273.393L934.081 276.562L933.643 270.901C933.633 270.773 933.663 270.645 933.73 270.535C933.796 270.426 933.895 270.339 934.013 270.288L939.435 267.947L933.898 265.424C933.782 265.371 933.685 265.283 933.621 265.173C933.557 265.063 933.529 264.935 933.541 264.808L934.054 259.386L929.605 262.538C929.501 262.611 929.376 262.651 929.249 262.651C929.121 262.651 928.997 262.611 928.892 262.538L924.378 259.339L924.63 264.934C924.635 265.056 924.604 265.177 924.541 265.281C924.478 265.386 924.385 265.469 924.274 265.52L919.031 267.954Z" fill="white"/>
</g>
<g opacity="0.08">
<path d="M748.333 73.1602H747.101V100.271H748.333V73.1602Z" fill="white"/>
<path d="M759.078 79.4626L735.598 93.0156L736.215 94.0829L759.694 80.5299L759.078 79.4626Z" fill="white"/>
<path d="M736.053 79.2687L735.437 80.3359L758.916 93.8913L759.532 92.8241L736.053 79.2687Z" fill="white"/>
<path d="M747.717 73.7759C747.595 73.776 747.476 73.74 747.375 73.6724L745.526 72.4401C745.442 72.3838 745.373 72.3076 745.325 72.2182C745.277 72.1287 745.252 72.0289 745.252 71.9275V70.079C745.252 69.9776 745.277 69.8778 745.325 69.7883C745.373 69.6989 745.442 69.6227 745.526 69.5664L747.375 68.3341C747.476 68.2665 747.595 68.2305 747.717 68.2305C747.839 68.2305 747.958 68.2665 748.059 68.3341L749.907 69.5664C749.992 69.6227 750.061 69.6989 750.109 69.7883C750.157 69.8778 750.182 69.9776 750.182 70.079V71.9275C750.182 72.0289 750.157 72.1287 750.109 72.2182C750.061 72.3076 749.992 72.3838 749.907 72.4401L748.059 73.6724C747.958 73.74 747.839 73.776 747.717 73.7759ZM746.485 71.5978L747.717 72.4204L748.949 71.5991V70.4087L747.717 69.5861L746.485 70.4087V71.5978Z" fill="white"/>
<path d="M747.717 105.198C747.595 105.198 747.476 105.162 747.375 105.094L745.527 103.862C745.442 103.806 745.373 103.729 745.325 103.64C745.277 103.551 745.252 103.451 745.252 103.349V101.501C745.252 101.399 745.277 101.3 745.325 101.21C745.373 101.121 745.442 101.045 745.527 100.988L747.375 99.7559C747.476 99.6884 747.595 99.6523 747.717 99.6523C747.839 99.6523 747.958 99.6884 748.059 99.7559L749.907 100.988C749.992 101.045 750.061 101.121 750.109 101.21C750.157 101.3 750.182 101.399 750.182 101.501V103.349C750.182 103.451 750.157 103.551 750.109 103.64C750.061 103.729 749.992 103.806 749.907 103.862L748.059 105.094C747.958 105.162 747.839 105.198 747.717 105.198V105.198ZM746.485 103.02L747.717 103.842L748.949 103.021V101.832L747.717 101.008L746.485 101.829V103.02Z" fill="white"/>
<path d="M747.717 77.4715C747.573 77.4718 747.433 77.4214 747.322 77.3292L743.625 74.2484L744.415 73.3008L747.717 76.0544L751.019 73.302L751.809 74.2497L748.112 77.3304C748.001 77.4222 747.861 77.4721 747.717 77.4715Z" fill="white"/>
<path d="M751.019 100.126L747.717 97.3724L744.415 100.125L743.625 99.1771L747.322 96.0964C747.433 96.0038 747.573 95.9531 747.717 95.9531C747.862 95.9531 748.001 96.0038 748.112 96.0964L751.809 99.1771L751.019 100.126Z" fill="white"/>
<path d="M734.161 97.3143C734.066 97.315 733.973 97.2939 733.888 97.2527L731.896 96.2668C731.787 96.2129 731.696 96.128 731.635 96.0226C731.574 95.9172 731.546 95.7962 731.554 95.6747L731.697 93.4566C731.704 93.3554 731.736 93.2575 731.79 93.1715C731.843 93.0855 731.918 93.0141 732.005 92.9636L733.607 92.0394C733.695 91.9888 733.794 91.9606 733.896 91.9573C733.997 91.9541 734.098 91.976 734.189 92.0209L736.18 93.0068C736.289 93.0607 736.38 93.1457 736.441 93.2511C736.501 93.3564 736.53 93.4775 736.522 93.5989L736.379 95.8171C736.372 95.9182 736.34 96.0161 736.287 96.1021C736.233 96.1881 736.159 96.2595 736.071 96.31L734.469 97.2342C734.375 97.2874 734.269 97.3151 734.161 97.3143V97.3143ZM732.813 95.3426L734.14 95.9988L735.169 95.4048L735.265 93.9261L733.938 93.2686L732.908 93.8638L732.813 95.3426Z" fill="white"/>
<path d="M761.377 81.5995C761.283 81.6001 761.19 81.579 761.104 81.5378L759.112 80.552C759.003 80.4981 758.913 80.4131 758.852 80.3077C758.791 80.2024 758.763 80.0813 758.771 79.9599L758.914 77.7417C758.921 77.6406 758.953 77.5426 759.006 77.4567C759.06 77.3707 759.134 77.2993 759.222 77.2488L760.824 76.3246C760.912 76.2739 761.011 76.2457 761.112 76.2425C761.214 76.2393 761.314 76.2611 761.405 76.3061L763.397 77.2919C763.506 77.3458 763.596 77.4308 763.657 77.5362C763.718 77.6416 763.746 77.7626 763.739 77.8841L763.596 80.1022C763.589 80.2034 763.557 80.3013 763.503 80.3873C763.45 80.4733 763.375 80.5447 763.288 80.5951L761.686 81.5194C761.592 81.5726 761.485 81.6002 761.377 81.5995ZM760.027 79.6278L761.355 80.284L762.382 79.6894L762.477 78.2106L761.15 77.555L760.121 78.1496L760.027 79.6278Z" fill="white"/>
<path d="M738.896 96.5512L737.681 96.3405L738.413 92.1051L734.378 90.6214L734.803 89.4648L739.32 91.1285C739.455 91.1781 739.569 91.2738 739.641 91.3988C739.713 91.5238 739.74 91.6702 739.715 91.8124L738.896 96.5512Z" fill="white"/>
<path d="M760.489 84.0835L755.971 82.4199C755.836 82.3701 755.723 82.2745 755.651 82.1496C755.579 82.0248 755.553 81.8786 755.577 81.7366L756.397 76.9922L757.612 77.2029L756.878 81.4384L760.914 82.9221L760.489 84.0835Z" fill="white"/>
<path d="M760.97 97.1176C760.862 97.1175 760.755 97.0891 760.662 97.035L759.06 96.1108C758.972 96.0603 758.898 95.9889 758.844 95.9029C758.79 95.8169 758.758 95.719 758.752 95.6178L758.609 93.3997C758.601 93.2783 758.63 93.1573 758.69 93.052C758.751 92.9466 758.842 92.8615 758.951 92.8076L760.942 91.8217C761.033 91.7767 761.134 91.7549 761.235 91.7581C761.336 91.7613 761.435 91.7895 761.523 91.8402L763.125 92.7644C763.213 92.8149 763.287 92.8863 763.341 92.9723C763.395 93.0583 763.426 93.1562 763.433 93.2573L763.575 95.4755C763.583 95.5969 763.555 95.7179 763.494 95.8232C763.434 95.9286 763.343 96.0136 763.234 96.0676L761.243 97.0535C761.158 97.0958 761.064 97.1177 760.97 97.1176V97.1176ZM759.962 95.2075L760.992 95.8021L762.32 95.1465L762.225 93.6677L761.196 93.0731L759.869 93.7293L759.962 95.2075Z" fill="white"/>
<path d="M733.755 81.4066C733.647 81.4066 733.541 81.3781 733.447 81.3241L731.845 80.3998C731.757 80.3494 731.683 80.278 731.63 80.192C731.576 80.106 731.544 80.0081 731.537 79.9069L731.395 77.6887C731.387 77.5674 731.415 77.4464 731.476 77.341C731.537 77.2356 731.627 77.1506 731.736 77.0966L733.728 76.1108C733.819 76.0658 733.919 76.044 734.021 76.0472C734.122 76.0504 734.221 76.0786 734.309 76.1293L735.911 77.0535C735.999 77.104 736.073 77.1754 736.127 77.2613C736.18 77.3473 736.212 77.4452 736.219 77.5464L736.361 79.7646C736.369 79.8859 736.341 80.0069 736.28 80.1123C736.219 80.2177 736.129 80.3027 736.02 80.3567L734.028 81.3425C733.944 81.3849 733.85 81.4068 733.755 81.4066V81.4066ZM732.748 79.4965L733.778 80.0911L735.105 79.4349L735.01 77.9562L733.98 77.3616L732.653 78.019L732.748 79.4965Z" fill="white"/>
<path d="M756.235 96.3563L755.416 91.6119C755.391 91.47 755.417 91.324 755.489 91.1993C755.562 91.0745 755.675 90.979 755.81 90.9292L760.327 89.2656L760.752 90.4221L756.717 91.9065L757.452 96.1474L756.235 96.3563Z" fill="white"/>
<path d="M734.645 83.8911L734.219 82.7346L738.254 81.2509L737.522 77.0142L738.736 76.8047L739.556 81.5491C739.58 81.6911 739.554 81.8373 739.482 81.9621C739.41 82.087 739.297 82.1826 739.161 82.2324L734.645 83.8911Z" fill="white"/>
<path d="M741.555 97.1899C741.469 97.1899 741.383 97.1716 741.304 97.1362C741.224 97.1008 741.154 97.049 741.096 96.9843C741.038 96.9197 740.994 96.8435 740.968 96.7608C740.942 96.6782 740.933 96.5909 740.943 96.5047L741.687 89.9254L735.759 87.2759C735.651 87.2277 735.559 87.1494 735.494 87.0505C735.43 86.9515 735.395 86.836 735.394 86.7178C735.393 86.5996 735.426 86.4836 735.489 86.3838C735.553 86.2839 735.643 86.2043 735.751 86.1545L741.846 83.3264L741.555 76.8845C741.55 76.7693 741.577 76.6549 741.634 76.5544C741.691 76.4539 741.774 76.3713 741.876 76.316C741.977 76.2607 742.092 76.235 742.207 76.2417C742.322 76.2484 742.433 76.2873 742.527 76.354L747.717 80.0294L752.906 76.354C753.003 76.2847 753.117 76.2448 753.236 76.239C753.354 76.2332 753.472 76.2619 753.575 76.3216C753.678 76.3812 753.761 76.4693 753.815 76.5752C753.869 76.681 753.891 76.8002 753.878 76.9184L753.28 83.2408L759.68 86.1545C759.788 86.204 759.88 86.284 759.944 86.3846C760.008 86.4852 760.041 86.6023 760.04 86.7215C760.039 86.8408 760.003 86.9571 759.937 87.0564C759.871 87.1557 759.777 87.2336 759.668 87.2809L753.371 89.995L753.877 96.5263C753.886 96.643 753.861 96.7598 753.806 96.8631C753.751 96.9664 753.668 97.0519 753.566 97.1097C753.464 97.1674 753.348 97.1949 753.231 97.189C753.114 97.1832 753.002 97.1441 752.906 97.0765L747.699 93.3882L741.886 97.0931C741.787 97.1562 741.673 97.1898 741.555 97.1899V97.1899ZM737.497 86.7042L742.601 88.9839C742.72 89.0372 742.82 89.1272 742.885 89.2407C742.95 89.3543 742.977 89.4855 742.962 89.6155L742.313 95.3599L747.386 92.1263C747.489 92.0605 747.61 92.027 747.732 92.03C747.854 92.0329 747.973 92.0723 748.073 92.1429L752.547 95.3118L752.109 89.6512C752.099 89.5233 752.129 89.3954 752.196 89.2855C752.262 89.1756 752.361 89.0891 752.479 89.0381L757.901 86.6968L752.364 84.1742C752.248 84.1212 752.151 84.0334 752.087 83.923C752.023 83.8127 751.995 83.6851 752.007 83.5581L752.52 78.1359L748.071 81.2875C747.966 81.3613 747.842 81.4009 747.714 81.4009C747.587 81.4009 747.462 81.3613 747.358 81.2875L742.844 78.0891L743.096 83.6838C743.101 83.8058 743.07 83.9268 743.007 84.0312C742.943 84.1357 742.85 84.2189 742.74 84.2703L737.497 86.7042Z" fill="white"/>
</g>
<g opacity="0.08">
<path d="M106.358 50.4102H104.276V96.2207H106.358V50.4102Z" fill="white"/>
<path d="M124.514 61.0635L84.8396 83.9648L85.8806 85.7683L125.555 62.867L124.514 61.0635Z" fill="white"/>
<path d="M85.6083 60.7357L84.5671 62.5391L124.24 85.4443L125.281 83.641L85.6083 60.7357Z" fill="white"/>
<path d="M105.317 51.4525C105.111 51.4526 104.91 51.3917 104.739 51.2776L101.615 49.1953C101.473 49.1002 101.356 48.9714 101.275 48.8203C101.194 48.6692 101.152 48.5004 101.152 48.3291V45.2056C101.152 45.0343 101.194 44.8655 101.275 44.7144C101.356 44.5633 101.473 44.4345 101.615 44.3394L104.739 42.2571C104.91 42.1429 105.111 42.082 105.317 42.082C105.522 42.082 105.724 42.1429 105.895 42.2571L109.018 44.3394C109.161 44.4345 109.277 44.5633 109.358 44.7144C109.439 44.8655 109.481 45.0343 109.481 45.2056V48.3291C109.481 48.5004 109.439 48.6692 109.358 48.8203C109.277 48.9714 109.161 49.1002 109.018 49.1953L105.895 51.2776C105.723 51.3917 105.522 51.4526 105.317 51.4525ZM103.234 47.7721L105.317 49.162L107.399 47.7741V45.7626L105.317 44.3727L103.234 45.7626V47.7721Z" fill="white"/>
<path d="M105.317 104.55C105.111 104.55 104.91 104.489 104.739 104.375L101.615 102.293C101.473 102.198 101.356 102.069 101.275 101.918C101.194 101.767 101.152 101.598 101.152 101.427V98.3033C101.152 98.1319 101.194 97.9632 101.275 97.8121C101.356 97.661 101.473 97.5322 101.615 97.4371L104.739 95.3548C104.91 95.2406 105.111 95.1797 105.317 95.1797C105.522 95.1797 105.724 95.2406 105.895 95.3548L109.018 97.4371C109.161 97.5322 109.277 97.661 109.358 97.8121C109.439 97.9632 109.481 98.1319 109.481 98.3033V101.427C109.481 101.598 109.439 101.767 109.358 101.918C109.277 102.069 109.161 102.198 109.018 102.293L105.895 104.375C105.723 104.489 105.522 104.55 105.317 104.55V104.55ZM103.234 100.87L105.317 102.26L107.399 100.872V98.8624L105.317 97.4704L103.234 98.8582V100.87Z" fill="white"/>
<path d="M105.317 57.6999C105.073 57.7003 104.837 57.6152 104.65 57.4594L98.403 52.2536L99.7377 50.6523L105.317 55.3052L110.897 50.6544L112.231 52.2557L105.985 57.4615C105.797 57.6165 105.561 57.7009 105.317 57.6999Z" fill="white"/>
<path d="M110.897 95.9808L105.317 91.3279L99.7378 95.9787L98.403 94.3775L104.65 89.1717C104.837 89.0153 105.073 88.9297 105.317 88.9297C105.561 88.9297 105.797 89.0153 105.985 89.1717L112.232 94.3775L110.897 95.9808Z" fill="white"/>
<path d="M82.4103 91.2244C82.2506 91.2255 82.0928 91.1899 81.9491 91.1202L78.5831 89.4544C78.3987 89.3633 78.2454 89.2197 78.1426 89.0417C78.0398 88.8636 77.992 88.6591 78.0052 88.4539L78.2478 84.7057C78.2593 84.5348 78.3129 84.3693 78.4037 84.224C78.4945 84.0787 78.6198 83.9581 78.7684 83.8728L81.4754 82.3111C81.6238 82.2255 81.7911 82.1779 81.9624 82.1724C82.1336 82.167 82.3036 82.2039 82.4572 82.2799L85.8222 83.9457C86.0065 84.0368 86.1598 84.1804 86.2626 84.3585C86.3654 84.5365 86.4133 84.741 86.4 84.9462L86.1585 88.6944C86.1469 88.8653 86.0934 89.0308 86.0026 89.1761C85.9118 89.3214 85.7865 89.442 85.6379 89.5273L82.9309 91.089C82.7722 91.1789 82.5927 91.2256 82.4103 91.2244V91.2244ZM80.1323 87.8927L82.376 89.0015L84.1147 87.9978L84.2761 85.4991L82.0334 84.3882L80.2937 85.3939L80.1323 87.8927Z" fill="white"/>
<path d="M128.4 64.6736C128.24 64.6747 128.082 64.6391 127.938 64.5695L124.572 62.9036C124.388 62.8126 124.235 62.6689 124.132 62.4909C124.029 62.3128 123.981 62.1083 123.995 61.9031L124.237 58.1549C124.249 57.984 124.302 57.8185 124.393 57.6732C124.484 57.5279 124.609 57.4073 124.758 57.322L127.465 55.7603C127.613 55.6747 127.78 55.6271 127.952 55.6216C128.123 55.6162 128.293 55.6531 128.447 55.7291L131.812 57.3949C131.996 57.486 132.149 57.6296 132.252 57.8077C132.355 57.9857 132.403 58.1903 132.389 58.3955L132.148 62.1436C132.136 62.3145 132.083 62.48 131.992 62.6253C131.901 62.7706 131.776 62.8912 131.627 62.9765L128.92 64.5382C128.762 64.6282 128.582 64.6748 128.4 64.6736ZM126.119 61.3419L128.362 62.4507L130.097 61.446L130.258 58.9473L128.016 57.8395L126.276 58.8442L126.119 61.3419Z" fill="white"/>
<path d="M90.4114 89.9391L88.3593 89.583L89.5952 82.4262L82.7777 79.9191L83.4951 77.9648L91.1277 80.7759C91.3567 80.8599 91.549 81.0216 91.6709 81.2328C91.7929 81.444 91.8368 81.6913 91.7951 81.9316L90.4114 89.9391Z" fill="white"/>
<path d="M126.899 68.8732L119.265 66.0621C119.036 65.978 118.845 65.8164 118.723 65.6054C118.601 65.3945 118.557 65.1475 118.599 64.9075L119.984 56.8906L122.036 57.2467L120.798 64.4036L127.616 66.9106L126.899 68.8732Z" fill="white"/>
<path d="M127.711 90.8926C127.528 90.8926 127.349 90.8445 127.19 90.7531L124.483 89.1914C124.335 89.1061 124.209 88.9854 124.119 88.8401C124.028 88.6948 123.974 88.5294 123.963 88.3584L123.722 84.6103C123.709 84.4052 123.756 84.2008 123.859 84.0227C123.962 83.8447 124.115 83.701 124.299 83.6098L127.664 81.9439C127.818 81.8679 127.988 81.831 128.159 81.8365C128.33 81.8419 128.497 81.8895 128.646 81.9751L131.353 83.5369C131.501 83.6222 131.627 83.7428 131.717 83.8881C131.808 84.0334 131.862 84.1988 131.873 84.3698L132.114 88.1179C132.127 88.323 132.08 88.5275 131.977 88.7055C131.874 88.8836 131.721 89.0272 131.537 89.1185L128.172 90.7843C128.029 90.8558 127.871 90.8929 127.711 90.8926V90.8926ZM126.009 87.665L127.748 88.6697L129.993 87.5619L129.833 85.0632L128.093 84.0585L125.85 85.1673L126.009 87.665Z" fill="white"/>
<path d="M81.7253 64.3418C81.5426 64.3418 81.363 64.2937 81.2048 64.2023L78.4978 62.6406C78.3492 62.5553 78.2239 62.4347 78.1331 62.2894C78.0423 62.1441 77.9887 61.9786 77.9772 61.8077L77.7367 58.0595C77.7234 57.8544 77.771 57.65 77.8736 57.4719C77.9763 57.2939 78.1293 57.1502 78.3135 57.059L81.6785 55.3931C81.8321 55.3171 82.002 55.2802 82.1733 55.2857C82.3446 55.2911 82.5118 55.3388 82.6603 55.4244L85.3673 56.9861C85.5159 57.0714 85.6411 57.192 85.732 57.3373C85.8228 57.4826 85.8763 57.6481 85.8879 57.819L86.1284 61.5671C86.1417 61.7722 86.094 61.9767 85.9914 62.1547C85.8888 62.3328 85.7357 62.4765 85.5516 62.5677L82.1866 64.2335C82.0434 64.3051 81.8854 64.3421 81.7253 64.3418V64.3418ZM80.0231 61.1142L81.7628 62.119L84.0055 61.0101L83.8451 58.5114L82.1054 57.5067L79.8627 58.6176L80.0231 61.1142Z" fill="white"/>
<path d="M119.711 89.6105L118.326 81.5936C118.285 81.3538 118.329 81.107 118.451 80.8963C118.572 80.6855 118.764 80.5241 118.992 80.44L126.624 77.6289L127.343 79.5831L120.525 82.0913L121.766 89.2575L119.711 89.6105Z" fill="white"/>
<path d="M83.2285 68.5446L82.509 66.5903L89.3275 64.0832L88.0896 56.9243L90.1417 56.5703L91.5264 64.5872C91.568 64.8272 91.524 65.0741 91.4023 65.2851C91.2805 65.4961 91.0887 65.6577 90.8601 65.7418L83.2285 68.5446Z" fill="white"/>
<path d="M94.9052 91.0163C94.7586 91.0164 94.6137 90.9855 94.4799 90.9256C94.346 90.8658 94.2264 90.7783 94.1287 90.669C94.031 90.5598 93.9575 90.4311 93.9129 90.2914C93.8684 90.1517 93.8539 90.0042 93.8703 89.8586L95.127 78.7412L85.1101 74.2642C84.9277 74.1827 84.7726 74.0505 84.6634 73.8833C84.5541 73.716 84.4952 73.5209 84.4938 73.3211C84.4924 73.1214 84.5484 72.9254 84.6553 72.7567C84.7622 72.5879 84.9154 72.4535 85.0966 72.3693L95.3956 67.5905L94.9052 56.7053C94.8965 56.5105 94.9425 56.3172 95.0382 56.1474C95.1339 55.9776 95.2753 55.838 95.4464 55.7446C95.6175 55.6512 95.8114 55.6077 96.0059 55.6191C96.2005 55.6304 96.388 55.6962 96.5471 55.8088L105.317 62.0193L114.085 55.8088C114.248 55.6917 114.442 55.6242 114.642 55.6145C114.843 55.6048 115.042 55.6532 115.215 55.754C115.389 55.8548 115.53 56.0036 115.621 56.1825C115.712 56.3614 115.749 56.5629 115.728 56.7625L114.716 67.4458L125.531 72.3693C125.714 72.453 125.869 72.588 125.977 72.7581C126.085 72.9281 126.142 73.1259 126.14 73.3274C126.137 73.5289 126.077 73.7254 125.965 73.8932C125.854 74.061 125.696 74.1928 125.511 74.2726L114.871 78.8588L115.725 89.895C115.74 90.0922 115.699 90.2896 115.606 90.4642C115.513 90.6388 115.373 90.7833 115.201 90.8808C115.029 90.9784 114.832 91.0249 114.635 91.015C114.437 91.005 114.247 90.9391 114.085 90.8248L105.287 84.5924L95.4643 90.8529C95.2973 90.9594 95.1033 91.0162 94.9052 91.0163V91.0163ZM88.0472 73.2981L96.672 77.1503C96.8738 77.2404 97.0417 77.3924 97.1514 77.5842C97.2611 77.7761 97.3069 77.9979 97.2822 78.2175L96.1848 87.9241L104.758 82.4602C104.932 82.349 105.136 82.2923 105.342 82.2974C105.549 82.3024 105.75 82.3688 105.918 82.4883L113.478 87.8429L112.738 78.2779C112.721 78.0616 112.772 77.8456 112.884 77.6599C112.996 77.4741 113.164 77.328 113.363 77.2419L122.525 73.2856L113.169 69.0231C112.973 68.9334 112.81 68.7851 112.701 68.5986C112.593 68.4121 112.546 68.1967 112.565 67.9819L113.432 58.8198L105.914 64.1453C105.738 64.2699 105.528 64.3368 105.313 64.3368C105.097 64.3368 104.887 64.2699 104.711 64.1453L97.0823 58.7407L97.5081 68.1943C97.5174 68.4006 97.4651 68.605 97.358 68.7815C97.2508 68.9579 97.0936 69.0986 96.9063 69.1855L88.0472 73.2981Z" fill="white"/>
</g>
<g opacity="0.5" filter="url(#filter1_f_5855_7206)">
<path d="M1234 582.5C1234 647.946 1150.4 701 1047.28 701C944.154 701 898 612.543 898 547.097C898 481.652 944.154 464 1047.28 464C1150.4 464 1234 517.054 1234 582.5Z" fill="#FF83C8"/>
</g>
<g filter="url(#filter2_f_5855_7206)">
<path d="M85.9226 89.7248C85.9226 50.7888 165.238 32 74.4276 32C-16.3832 32 -90 63.5639 -90 102.5C-90 141.436 -16.3832 173 74.4276 173C165.238 173 85.9226 128.661 85.9226 89.7248Z" fill="#8130E4" fill-opacity="0.43"/>
</g>
<g opacity="0.3" filter="url(#filter3_f_5855_7206)">
<ellipse cx="139.5" cy="148" rx="139.5" ry="148" transform="matrix(1 0 0 -1 926 296)" fill="#8130E4"/>
</g>
</g>
<defs>
<filter id="filter0_f_5855_7206" x="-340" y="186" width="1046" height="801" filterUnits="userSpaceOnUse" color-interpolation-filters="sRGB">
<feFlood flood-opacity="0" result="BackgroundImageFix"/>
<feBlend mode="normal" in="SourceGraphic" in2="BackgroundImageFix" result="shape"/>
<feGaussianBlur stdDeviation="100" result="effect1_foregroundBlur_5855_7206"/>
</filter>
<filter id="filter1_f_5855_7206" x="698" y="264" width="736" height="637" filterUnits="userSpaceOnUse" color-interpolation-filters="sRGB">
<feFlood flood-opacity="0" result="BackgroundImageFix"/>
<feBlend mode="normal" in="SourceGraphic" in2="BackgroundImageFix" result="shape"/>
<feGaussianBlur stdDeviation="100" result="effect1_foregroundBlur_5855_7206"/>
</filter>
<filter id="filter2_f_5855_7206" x="-240" y="-118" width="508" height="441" filterUnits="userSpaceOnUse" color-interpolation-filters="sRGB">
<feFlood flood-opacity="0" result="BackgroundImageFix"/>
<feBlend mode="normal" in="SourceGraphic" in2="BackgroundImageFix" result="shape"/>
<feGaussianBlur stdDeviation="75" result="effect1_foregroundBlur_5855_7206"/>
</filter>
<filter id="filter3_f_5855_7206" x="776" y="-150" width="579" height="596" filterUnits="userSpaceOnUse" color-interpolation-filters="sRGB">
<feFlood flood-opacity="0" result="BackgroundImageFix"/>
<feBlend mode="normal" in="SourceGraphic" in2="BackgroundImageFix" result="shape"/>
<feGaussianBlur stdDeviation="75" result="effect1_foregroundBlur_5855_7206"/>
</filter>
<clipPath id="clip0_5855_7206">
<rect width="1028" height="572" fill="white"/>
</clipPath>
</defs>
</svg>
