<svg width="133" height="38" viewBox="0 0 133 38" fill="none" xmlns="http://www.w3.org/2000/svg">
<g clip-path="url(#clip0_5747_2969)">
<path d="M22.9698 37.5414C26.4123 37.5414 28.7987 35.9348 30.4523 33.8227V36.8988H35.1801V15.0958H30.4523V17.7115C29.0298 15.9677 26.3672 14.4531 23.1088 14.4531C16.8195 14.4531 12.4131 19.1809 12.4131 25.9738C12.4131 32.7667 16.6354 37.5414 22.9698 37.5414ZM17.2329 25.9738C17.2329 21.9807 19.6663 18.7675 22.6485 18.7675H25.5404C28.3853 18.7675 30.3132 21.246 30.3132 24.1379V27.9487C30.3132 30.9327 28.2481 33.2271 25.5404 33.2271H22.6485C19.6645 33.2271 17.2329 30.0138 17.2329 25.9738Z" fill="white"/>
<path d="M44.5423 36.8987H51.5193L59.3683 15.0957H54.7326L48.4902 32.4002H47.7555L41.5132 15.0957H36.6934L44.5423 36.8987Z" fill="white"/>
<path d="M69.2638 37.5414C72.7983 37.5414 75.0927 36.164 76.425 33.9147V36.8987H81.1076V15.0957H76.2878V27.9937C76.2878 30.9777 74.2678 33.0428 72.0185 33.0428H69.4028C67.2907 33.0428 65.6841 31.16 65.6841 27.9937V15.0957H60.8643V28.8205C60.8643 34.4672 63.9854 37.5414 69.2638 37.5414Z" fill="white"/>
<path d="M92.376 37.5414C98.9866 37.5414 101.969 35.0628 101.969 30.5643C101.969 27.0749 100.041 24.8275 95.8636 24.322L90.7224 23.6794C88.7494 23.4031 87.8305 22.4392 87.8305 21.0167C87.8305 19.5942 88.7945 18.4912 90.8596 18.4912H93.6143C96.0008 18.4912 96.7825 19.8216 97.0117 21.7044H101.647C101.463 16.7004 98.0678 14.4512 92.4662 14.4512C86.5903 14.4512 83.332 16.8376 83.332 21.2441C83.332 24.5945 85.2599 27.1651 89.5743 27.6705L94.6685 28.3132C96.6415 28.5875 97.4683 29.5534 97.4683 30.9289C97.4683 32.3983 96.4593 33.4994 94.3002 33.4994H91.2711C88.7926 33.4994 87.5994 32.2592 87.3701 30.3332H82.7344C82.9186 35.1061 86.0397 37.5395 92.3741 37.5395L92.376 37.5414Z" fill="white"/>
<path fill-rule="evenodd" clip-rule="evenodd" d="M11.068 36.8999H5.73145C2.98047 36.8999 0.75 34.6694 0.75 31.9184V10.2188H5.61495V15.095H11.068V19.3173H5.61495V31.5407C5.61495 32.0913 6.06029 32.5366 6.61086 32.5366H11.0662V36.898L11.068 36.8999Z" fill="white"/>
<path fill-rule="evenodd" clip-rule="evenodd" d="M104.563 9.16993C104.563 4.1058 108.669 0 113.733 0H123.582C128.646 0 132.752 4.1058 132.752 9.16993C132.752 14.2341 128.646 18.3399 123.582 18.3399H113.733C108.669 18.3399 104.563 14.2341 104.563 9.16993ZM118.886 9.16993C118.886 11.9641 116.618 14.2303 113.82 14.2303C111.022 14.2303 108.754 11.9641 108.754 9.16993C108.754 6.37573 111.022 4.10956 113.82 4.10956C116.618 4.10956 118.886 6.37573 118.886 9.16993ZM120.485 14.0781L129.093 9.16993L120.485 4.26176V14.0781Z" fill="white"/>
</g>
<defs>
<clipPath id="clip0_5747_2969">
<rect width="132" height="37.5422" fill="white" transform="translate(0.75)"/>
</clipPath>
</defs>
</svg>
