<svg width="64" height="65" viewBox="0 0 64 65" fill="none" xmlns="http://www.w3.org/2000/svg">
<path d="M33.0002 10.5H31.0002V54.5H33.0002V10.5Z" fill="white"/>
<path d="M50.4384 20.7343L12.3323 42.7305L13.3321 44.4626L51.4383 22.4664L50.4384 20.7343Z" fill="white"/>
<path d="M13.0706 20.4164L12.0706 22.1484L50.1757 44.1484L51.1757 42.4164L13.0706 20.4164Z" fill="white"/>
<path d="M32 11.5001C31.8025 11.5002 31.6093 11.4417 31.445 11.3321L28.445 9.33215C28.3081 9.2408 28.1958 9.11707 28.1182 8.97193C28.0406 8.8268 28 8.66474 28 8.50015V5.50015C28 5.33556 28.0406 5.1735 28.1182 5.02837C28.1958 4.88323 28.3081 4.7595 28.445 4.66815L31.445 2.66815C31.6093 2.55851 31.8025 2.5 32 2.5C32.1975 2.5 32.3907 2.55851 32.555 2.66815L35.555 4.66815C35.6919 4.7595 35.8042 4.88323 35.8818 5.02837C35.9594 5.1735 36 5.33556 36 5.50015V8.50015C36 8.66474 35.9594 8.8268 35.8818 8.97193C35.8042 9.11707 35.6919 9.2408 35.555 9.33215L32.555 11.3321C32.3907 11.4417 32.1975 11.5002 32 11.5001ZM30 7.96515L32 9.30015L34 7.96715V6.03515L32 4.70015L30 6.03515V7.96515Z" fill="white"/>
<path d="M32 62.5001C31.8025 62.5002 31.6093 62.4417 31.445 62.3321L28.445 60.3321C28.3081 60.2408 28.1958 60.1171 28.1182 59.9719C28.0406 59.8268 28 59.6647 28 59.5001V56.5001C28 56.3356 28.0406 56.1735 28.1182 56.0284C28.1958 55.8832 28.3081 55.7595 28.445 55.6681L31.445 53.6681C31.6093 53.5585 31.8025 53.5 32 53.5C32.1975 53.5 32.3907 53.5585 32.555 53.6681L35.555 55.6681C35.6919 55.7595 35.8042 55.8832 35.8818 56.0284C35.9594 56.1735 36 56.3356 36 56.5001V59.5001C36 59.6647 35.9594 59.8268 35.8818 59.9719C35.8042 60.1171 35.6919 60.2408 35.555 60.3321L32.555 62.3321C32.3907 62.4417 32.1975 62.5002 32 62.5001ZM30 58.9651L32 60.3001L34 58.9671V57.0371L32 55.7001L30 57.0331V58.9651Z" fill="white"/>
<path d="M32.0004 17.4995C31.7663 17.4999 31.5394 17.4181 31.3594 17.2685L25.3594 12.2685L26.6414 10.7305L32.0004 15.1995L37.3594 10.7325L38.6414 12.2705L32.6414 17.2705C32.4611 17.4194 32.2342 17.5004 32.0004 17.4995Z" fill="white"/>
<path d="M37.3594 54.2686L32.0004 49.7996L26.6414 54.2666L25.3594 52.7286L31.3594 47.7286C31.5392 47.5784 31.7661 47.4961 32.0004 47.4961C32.2347 47.4961 32.4615 47.5784 32.6414 47.7286L38.6414 52.7286L37.3594 54.2686Z" fill="white"/>
<path d="M9.99895 49.6986C9.84557 49.6997 9.69399 49.6655 9.55595 49.5986L6.32295 47.9986C6.14588 47.9111 5.99868 47.7732 5.89991 47.6022C5.80114 47.4311 5.75522 47.2347 5.76795 47.0376L6.00095 43.4376C6.01203 43.2734 6.06346 43.1145 6.15068 42.9749C6.2379 42.8354 6.35821 42.7195 6.50095 42.6376L9.10095 41.1376C9.24352 41.0554 9.40419 41.0096 9.56869 41.0044C9.73319 40.9992 9.89643 41.0346 10.0439 41.1076L13.2759 42.7076C13.453 42.7951 13.6002 42.933 13.699 43.1041C13.7978 43.2751 13.8437 43.4715 13.8309 43.6686L13.5989 47.2686C13.5879 47.4328 13.5364 47.5917 13.4492 47.7313C13.362 47.8708 13.2417 47.9867 13.0989 48.0686L10.4989 49.5686C10.3465 49.655 10.1741 49.6998 9.99895 49.6986ZM7.81095 46.4986L9.96595 47.5636L11.6359 46.5996L11.7909 44.1996L9.63695 43.1326L7.96595 44.0986L7.81095 46.4986Z" fill="white"/>
<path d="M54.1706 24.1986C54.0172 24.1997 53.8656 24.1655 53.7276 24.0986L50.4946 22.4986C50.3175 22.4111 50.1703 22.2732 50.0715 22.1022C49.9728 21.9311 49.9269 21.7347 49.9396 21.5376L50.1726 17.9376C50.1837 17.7734 50.2351 17.6145 50.3223 17.4749C50.4095 17.3354 50.5298 17.2195 50.6726 17.1376L53.2726 15.6376C53.4152 15.5554 53.5758 15.5096 53.7403 15.5044C53.9048 15.4992 54.0681 15.5346 54.2156 15.6076L57.4476 17.2076C57.6246 17.2951 57.7718 17.433 57.8706 17.6041C57.9694 17.7751 58.0153 17.9715 58.0026 18.1686L57.7706 21.7686C57.7595 21.9328 57.7081 22.0917 57.6208 22.2313C57.5336 22.3708 57.4133 22.4867 57.2706 22.5686L54.6706 24.0686C54.5182 24.155 54.3458 24.1998 54.1706 24.1986ZM51.9796 20.9986L54.1346 22.0636L55.8006 21.0986L55.9556 18.6986L53.8016 17.6346L52.1306 18.5996L51.9796 20.9986Z" fill="white"/>
<path d="M17.6838 48.4658L15.7128 48.1238L16.8998 41.2498L10.3518 38.8418L11.0408 36.9648L18.3718 39.6648C18.5917 39.7455 18.7764 39.9008 18.8935 40.1036C19.0107 40.3065 19.0529 40.544 19.0128 40.7748L17.6838 48.4658Z" fill="white"/>
<path d="M52.7288 28.2317L45.3968 25.5317C45.1773 25.4509 44.993 25.2956 44.8761 25.093C44.7591 24.8904 44.7169 24.6532 44.7568 24.4227L46.0878 16.7227L48.0588 17.0647L46.8688 23.9387L53.4178 26.3467L52.7288 28.2317Z" fill="white"/>
<path d="M53.5089 49.3823C53.3334 49.3823 53.1609 49.3361 53.0089 49.2483L50.4089 47.7483C50.2662 47.6664 50.1458 47.5505 50.0586 47.411C49.9714 47.2714 49.92 47.1125 49.9089 46.9483L49.6779 43.3483C49.6651 43.1513 49.7108 42.955 49.8094 42.7839C49.908 42.6129 50.055 42.4749 50.2319 42.3873L53.4639 40.7873C53.6114 40.7143 53.7747 40.6789 53.9392 40.6841C54.1036 40.6893 54.2643 40.7351 54.4069 40.8173L57.0069 42.3173C57.1496 42.3992 57.2699 42.5151 57.3572 42.6546C57.4444 42.7942 57.4958 42.9531 57.5069 43.1173L57.7379 46.7173C57.7507 46.9143 57.7049 47.1106 57.6064 47.2817C57.5078 47.4527 57.3608 47.5907 57.1839 47.6783L53.9519 49.2783C53.8143 49.347 53.6626 49.3826 53.5089 49.3823ZM51.8739 46.2823L53.5449 47.2473L55.7009 46.1833L55.5469 43.7833L53.8759 42.8183L51.7219 43.8833L51.8739 46.2823Z" fill="white"/>
<path d="M9.34092 23.8823C9.16538 23.8823 8.99294 23.8361 8.84092 23.7483L6.24092 22.2483C6.09819 22.1664 5.97787 22.0505 5.89065 21.911C5.80343 21.7714 5.752 21.6125 5.74092 21.4483L5.50992 17.8483C5.49711 17.6513 5.54288 17.455 5.64146 17.2839C5.74005 17.1129 5.88704 16.9749 6.06392 16.8873L9.29592 15.2873C9.44344 15.2143 9.60668 15.1789 9.77118 15.1841C9.93568 15.1893 10.0963 15.2351 10.2389 15.3173L12.8389 16.8173C12.9817 16.8992 13.102 17.0151 13.1892 17.1546C13.2764 17.2942 13.3278 17.4531 13.3389 17.6173L13.5699 21.2173C13.5827 21.4143 13.537 21.6106 13.4384 21.7817C13.3398 21.9527 13.1928 22.0907 13.0159 22.1783L9.78392 23.7783C9.64637 23.847 9.49467 23.8826 9.34092 23.8823ZM7.70592 20.7823L9.37692 21.7473L11.5309 20.6823L11.3769 18.2823L9.70592 17.3173L7.55192 18.3843L7.70592 20.7823Z" fill="white"/>
<path d="M45.8252 48.1486L44.4952 40.4486C44.4556 40.2183 44.4979 39.9813 44.6148 39.7789C44.7317 39.5765 44.9158 39.4214 45.1352 39.3406L52.4652 36.6406L53.1562 38.5176L46.6072 40.9266L47.7992 47.8096L45.8252 48.1486Z" fill="white"/>
<path d="M10.7847 27.919L10.0938 26.042L16.6427 23.634L15.4537 16.758L17.4247 16.418L18.7547 24.118C18.7946 24.3485 18.7525 24.5857 18.6355 24.7883C18.5186 24.991 18.3343 25.1462 18.1147 25.227L10.7847 27.919Z" fill="white"/>
<path d="M22 49.4999C21.8592 49.5 21.7199 49.4703 21.5914 49.4128C21.4629 49.3553 21.3479 49.2713 21.2541 49.1664C21.1603 49.0614 21.0897 48.9378 21.0469 48.8036C21.0041 48.6695 20.9902 48.5278 21.006 48.3879L22.213 37.7099L12.592 33.4099C12.4168 33.3316 12.2678 33.2046 12.1629 33.044C12.0579 32.8834 12.0014 32.696 12 32.5041C11.9987 32.3122 12.0525 32.124 12.1552 31.9619C12.2578 31.7998 12.4049 31.6707 12.579 31.5899L22.471 26.9999L22 16.5449C21.9915 16.3579 22.0358 16.1722 22.1277 16.0091C22.2196 15.846 22.3554 15.712 22.5197 15.6222C22.6841 15.5325 22.8703 15.4907 23.0572 15.5016C23.2441 15.5125 23.4242 15.5757 23.577 15.6839L32 21.6489L40.422 15.6839C40.5785 15.5714 40.7643 15.5066 40.9569 15.4973C41.1495 15.4879 41.3406 15.5345 41.5074 15.6312C41.6741 15.728 41.8093 15.871 41.8967 16.0428C41.9841 16.2147 42.02 16.4082 42 16.5999L41.028 26.8609L51.415 31.5899C51.591 31.6702 51.74 31.7999 51.8438 31.9633C51.9476 32.1266 52.0018 32.3166 51.9998 32.5101C51.9978 32.7036 51.9397 32.8924 51.8325 33.0535C51.7253 33.2147 51.5737 33.3413 51.396 33.4179L41.177 37.8229L41.997 48.4229C42.0116 48.6123 41.9719 48.8019 41.8827 48.9696C41.7935 49.1373 41.6584 49.2761 41.4931 49.3698C41.3279 49.4634 41.1394 49.5081 40.9497 49.4986C40.76 49.4891 40.577 49.4257 40.422 49.3159L31.971 43.3299L22.537 49.3429C22.3765 49.4453 22.1902 49.4997 22 49.4999ZM15.413 32.4819L23.697 36.1819C23.8908 36.2685 24.052 36.4144 24.1574 36.5987C24.2627 36.783 24.3067 36.996 24.283 37.2069L23.229 46.5299L31.463 41.2819C31.6305 41.1752 31.826 41.1207 32.0246 41.1255C32.2231 41.1303 32.4158 41.1942 32.578 41.3089L39.839 46.4519L39.128 37.2649C39.1119 37.0572 39.1611 36.8497 39.2686 36.6713C39.3762 36.493 39.5368 36.3526 39.728 36.2699L48.528 32.4699L39.542 28.3759C39.3536 28.2898 39.1967 28.1473 39.0928 27.9682C38.9889 27.7891 38.9432 27.5821 38.962 27.3759L39.795 18.5759L32.574 23.6909C32.405 23.8106 32.203 23.8749 31.996 23.8749C31.7889 23.8749 31.5869 23.8106 31.418 23.6909L24.091 18.4999L24.5 27.5799C24.5089 27.778 24.4587 27.9743 24.3558 28.1438C24.2528 28.3133 24.1018 28.4484 23.922 28.5319L15.413 32.4819Z" fill="white"/>
</svg>
